<?xml version="1.0" encoding="utf-8"?>
<svg version="1.1" id="event_calendar" xmlns="http://www.w3.org/2000/svg" xmlns:xlink="http://www.w3.org/1999/xlink" x="0px" y="0px"
	 viewBox="0 0 500 450" xml:space="preserve">
<g>
	<path d="M370.4,52.8v-28c0-4.6-3.8-8.4-8.4-8.4s-8.4,3.8-8.4,8.4v28H146.4v-28c0-4.6-3.8-8.4-8.4-8.4s-8.4,3.8-8.4,8.4v28H37.2
		v380.8h425.6V52.8L370.4,52.8z M336.3,77.5L336.3,77.5c4.9-4.9,11-8.1,17.3-9.6v17.8c-2,0.9-3.8,2.1-5.5,3.8l0,0
		c-3.8,3.8-5.7,8.8-5.7,13.8c0,5,1.9,10,5.7,13.9c3.9,3.8,8.8,5.7,13.9,5.7c5,0,10-1.9,13.9-5.7c3.8-3.9,5.7-8.8,5.7-13.9
		c0-5-1.9-10-5.7-13.9c-1.6-1.6-3.5-2.8-5.5-3.8V67.8c6.4,1.5,12.4,4.7,17.3,9.6c7.1,7.1,10.7,16.5,10.7,25.7
		c0,9.3-3.6,18.6-10.6,25.7l0,0c-7.1,7.1-16.5,10.7-25.8,10.7c-9.3,0-18.7-3.6-25.7-10.7c-7.1-7.1-10.7-16.5-10.7-25.8
		C325.6,93.9,329.2,84.5,336.3,77.5L336.3,77.5z M112.3,77.5c4.9-4.9,11-8.1,17.3-9.7v17.8c-2,0.9-3.8,2.1-5.5,3.8
		c-3.8,3.8-5.7,8.8-5.7,13.8c0,5,1.9,10,5.7,13.9c3.9,3.8,8.8,5.7,13.9,5.7c5,0,10-1.9,13.9-5.7v0c3.8-3.9,5.7-8.8,5.7-13.9
		c0-5-1.9-10-5.7-13.9c-1.6-1.6-3.5-2.8-5.5-3.8l0-17.8c6.4,1.5,12.4,4.7,17.3,9.6c7.1,7.1,10.7,16.5,10.7,25.8
		c0,9.3-3.6,18.6-10.7,25.7c-7.1,7.1-16.5,10.7-25.7,10.7c-9.3,0-18.6-3.6-25.7-10.7c-7.1-7.1-10.7-16.5-10.7-25.7
		C101.6,93.9,105.2,84.5,112.3,77.5L112.3,77.5z M423.6,394.4H76.4V153.6h347.2V394.4z"/>
	<path d="M197.1,349.6l52.9-30l52.9,30L290.6,290l44.9-41l-60.4-6.8L250,186.9l-25.1,55.4l-60.4,6.8l44.9,41L197.1,349.6z"/>
</g>
</svg>
