<?xml version="1.0" encoding="utf-8"?> <!-- Generator: IcoMoon.io --> <!DOCTYPE svg PUBLIC "-//W3C//DTD SVG 1.1//EN" "http://www.w3.org/Graphics/SVG/1.1/DTD/svg11.dtd"> <svg xmlns="http://www.w3.org/2000/svg" xmlns:xlink="http://www.w3.org/1999/xlink" version="1.1" id="Layer_1" x="0px" y="0px" width="100px" height="44" viewBox="0 0 100 44" enable-background="new 0 0 100 44.833" xml:space="preserve" data-tags="handshake" style="margin-left: -2px; margin-top: 8px;"><g><line x1="2" x2="2" y1="0" y2="44" stroke="#B35047"></line><line x1="4" x2="4" y1="0" y2="44" stroke="#B35047"></line><line x1="6" x2="6" y1="0" y2="44" stroke="#B35047"></line><line x1="8" x2="8" y1="0" y2="44" stroke="#B35047"></line><line x1="10" x2="10" y1="0" y2="44" stroke="#B35047"></line><line x1="12" x2="12" y1="0" y2="44" stroke="#B35047"></line><line x1="14" x2="14" y1="0" y2="44" stroke="#B35047"></line><line x1="16" x2="16" y1="0" y2="44" stroke="#B35047"></line><line x1="18" x2="18" y1="0" y2="44" stroke="#B35047"></line><line x1="20" x2="20" y1="0" y2="44" stroke="#B35047"></line><line x1="22" x2="22" y1="0" y2="44" stroke="#B35047"></line><line x1="24" x2="24" y1="0" y2="44" stroke="#B35047"></line><line x1="26" x2="26" y1="0" y2="44" stroke="#B35047"></line><line x1="28" x2="28" y1="0" y2="44" stroke="#B35047"></line><line x1="30" x2="30" y1="0" y2="44" stroke="#B35047"></line><line x1="32" x2="32" y1="0" y2="44" stroke="#B35047"></line><line x1="34" x2="34" y1="0" y2="44" stroke="#B35047"></line><line x1="36" x2="36" y1="0" y2="44" stroke="#B35047"></line><line x1="38" x2="38" y1="0" y2="44" stroke="#B35047"></line><line x1="40" x2="40" y1="0" y2="44" stroke="#B35047"></line><line x1="42" x2="42" y1="0" y2="44" stroke="#B35047"></line><line x1="44" x2="44" y1="0" y2="44" stroke="#B35047"></line><line x1="46" x2="46" y1="0" y2="44" stroke="#B35047"></line><line x1="48" x2="48" y1="0" y2="44" stroke="#B35047"></line><line x1="50" x2="50" y1="0" y2="44" stroke="#B35047"></line><line x1="52" x2="52" y1="0" y2="44" stroke="#B35047"></line><line x1="54" x2="54" y1="0" y2="44" stroke="#B35047"></line><line x1="56" x2="56" y1="0" y2="44" stroke="#B35047"></line><line x1="58" x2="58" y1="0" y2="44" stroke="#B35047"></line><line x1="60" x2="60" y1="0" y2="44" stroke="#B35047"></line><line x1="62" x2="62" y1="0" y2="44" stroke="#B35047"></line><line x1="64" x2="64" y1="0" y2="44" stroke="#B35047"></line><line x1="66" x2="66" y1="0" y2="44" stroke="#B35047"></line><line x1="68" x2="68" y1="0" y2="44" stroke="#B35047"></line><line x1="70" x2="70" y1="0" y2="44" stroke="#B35047"></line><line x1="72" x2="72" y1="0" y2="44" stroke="#B35047"></line><line x1="74" x2="74" y1="0" y2="44" stroke="#B35047"></line><line x1="76" x2="76" y1="0" y2="44" stroke="#B35047"></line><line x1="78" x2="78" y1="0" y2="44" stroke="#B35047"></line><line x1="80" x2="80" y1="0" y2="44" stroke="#B35047"></line><line x1="82" x2="82" y1="0" y2="44" stroke="#B35047"></line><line x1="84" x2="84" y1="0" y2="44" stroke="#B35047"></line><line x1="86" x2="86" y1="0" y2="44" stroke="#B35047"></line><line x1="88" x2="88" y1="0" y2="44" stroke="#B35047"></line><line x1="90" x2="90" y1="0" y2="44" stroke="#B35047"></line><line x1="92" x2="92" y1="0" y2="44" stroke="#B35047"></line><line x1="94" x2="94" y1="0" y2="44" stroke="#B35047"></line><line x1="96" x2="96" y1="0" y2="44" stroke="#B35047"></line><line x1="98" x2="98" y1="0" y2="44" stroke="#B35047"></line><line x1="0" x2="100" y1="2" y2="2" stroke="#B35047"></line><line x1="0" x2="100" y1="4" y2="4" stroke="#B35047"></line><line x1="0" x2="100" y1="6" y2="6" stroke="#B35047"></line><line x1="0" x2="100" y1="8" y2="8" stroke="#B35047"></line><line x1="0" x2="100" y1="10" y2="10" stroke="#B35047"></line><line x1="0" x2="100" y1="12" y2="12" stroke="#B35047"></line><line x1="0" x2="100" y1="14" y2="14" stroke="#B35047"></line><line x1="0" x2="100" y1="16" y2="16" stroke="#B35047"></line><line x1="0" x2="100" y1="18" y2="18" stroke="#B35047"></line><line x1="0" x2="100" y1="20" y2="20" stroke="#B35047"></line><line x1="0" x2="100" y1="22" y2="22" stroke="#B35047"></line><line x1="0" x2="100" y1="24" y2="24" stroke="#B35047"></line><line x1="0" x2="100" y1="26" y2="26" stroke="#B35047"></line><line x1="0" x2="100" y1="28" y2="28" stroke="#B35047"></line><line x1="0" x2="100" y1="30" y2="30" stroke="#B35047"></line><line x1="0" x2="100" y1="32" y2="32" stroke="#B35047"></line><line x1="0" x2="100" y1="34" y2="34" stroke="#B35047"></line><line x1="0" x2="100" y1="36" y2="36" stroke="#B35047"></line><line x1="0" x2="100" y1="38" y2="38" stroke="#B35047"></line><line x1="0" x2="100" y1="40" y2="40" stroke="#B35047"></line><line x1="0" x2="100" y1="42" y2="42" stroke="#B35047"></line><rect x="0" y="0" width="100" height="44" fill="none" stroke="#B35047"></rect></g> <path d="M 88.101,24.778c 0.311,1.067-0.302,2.188-1.373,2.5l-11.817,3.437c-1.067,0.311-2.188-0.303-2.5-1.373L 67.615,12.842 c-0.311-1.068, 0.303-2.188, 1.373-2.501l 11.816-3.436c 1.067-0.312, 2.189,0.302, 2.5,1.373L 88.101,24.778zM 66.682,13.199c0,0-1.555,0.362-3.075,0.397s-4.017-0.24-4.603-0.516s-0.968-0.451-1.43-0.666 c-2.312-1.079-4.234-1.974-4.234-1.974c-0.066-0.029-0.13-0.048-0.199-0.068c-0.014-0.007-0.029-0.010-0.048-0.013 c-0.24-0.093-0.49-0.159-0.758-0.182L 46.712,9.672c-0.666-0.062-1.3,0.124-1.814,0.474c-0.010,0.009-0.029,0.020-0.048,0.037 c-0.125,0.089-0.241,0.188-0.353,0.298c-1.401,1.219-5.868,5.271-5.868,5.271c 0.12,0.121, 0.298,0.264, 0.528,0.413 c 0.147,0.095, 0.318,0.19, 0.509,0.278c 0.166,0.079, 0.349,0.151, 0.547,0.217c 0.086,0.029, 0.168,0.054, 0.259,0.079 c 1.035,0.272, 2.579,0.298, 4.316-0.895c 0.163-0.11, 1.104-0.765, 1.392-0.974c 0.456-0.336, 1.279-0.646, 2.514-0.555 c 1.236,0.092, 3.187,0.643, 3.187,0.643l 18.636,11.434L 66.682,13.199zM 46.237,32.734c 0.316-1.062, 1.43-1.663, 2.487-1.352l0,0c 1.061,0.316, 1.662,1.43, 1.351,2.487l-1.304,4.322 c-0.316,1.060-1.43,1.662-2.487,1.351l0,0c-1.061-0.316-1.662-1.429-1.351-2.487L 46.237,32.734zM 41.848,29.839c 0.317-1.061, 1.429-1.662, 2.487-1.351l0,0c 1.061,0.316, 1.662,1.429, 1.351,2.487l-1.565,5.080 c-0.317,1.061-1.429,1.661-2.487,1.351l0,0c-1.060-0.317-1.661-1.43-1.351-2.487L 41.848,29.839zM 36.752,29.338c 0.316-1.061, 1.43-1.662, 2.487-1.351l0,0c 1.061,0.316, 1.662,1.43, 1.351,2.487l-1.025,3.323 c-0.317,1.061-1.43,1.662-2.487,1.351l0,0c-1.061-0.316-1.661-1.43-1.351-2.487L 36.752,29.338zM 31.896,28.060c 0.317-1.061, 1.43-1.662, 2.487-1.351l0,0c 1.061,0.316, 1.662,1.429, 1.351,2.487l-0.317,1.014 c-0.316,1.061-1.43,1.662-2.487,1.351l0,0c-1.061-0.316-1.662-1.429-1.351-2.487L 31.896,28.060zM 27.299,29.899c-0.393,1.045-1.552,1.57-2.596,1.181L 13.179,26.764c-1.045-0.393-1.571-1.552-1.181-2.597L 18.025,8.079 c 0.393-1.045, 1.552-1.57, 2.597-1.181l 11.523,4.314c 1.045,0.393, 1.571,1.552, 1.181,2.597L 27.299,29.899zM 55.807,36.25l-2.448-1.504c-0.003-0.002-0.006-0.003-0.009-0.005l-2.193-1.346c-0.010,0.256-0.048,0.509-0.121,0.758 l-0.985,3.255l 3.658,2.244c 0.941,0.579, 2.176,0.282, 2.754-0.66S 56.749,36.829, 55.807,36.25zM 69.337,26.838L 58.468,20.165c-0.044-0.028-0.086-0.048-0.128-0.068l-6.871-4.226c-0.538-0.143-1.968-0.487-2.852-0.55 c-0.065-0.007-0.125-0.010-0.183-0.010c-0.987-0.036-1.488,0.249-1.661,0.374c-0.3,0.221-1.267,0.893-1.415,0.992 c-1.254,0.86-2.566,1.274-3.907,1.22c-0.414-0.015-0.833-0.077-1.237-0.182c-0.086-0.023-0.166-0.048-0.25-0.073l-0.054-0.017 c-0.237-0.076-0.458-0.163-0.674-0.264c-0.221-0.104-0.432-0.22-0.624-0.343c-0.277-0.179-0.515-0.368-0.701-0.55l-0.743-0.748 l 0.78-0.709c 0.107-0.099, 1.676-1.519, 3.218-2.909c-0.657,0.048-1.283,0.118-1.785,0.218c-1.942,0.383-5.066,1.842-5.066,1.842 l-4.818,12.903c0,0, 1.085,1.821, 1.112,1.73l 0.324-1.028c 0.387-1.301, 1.62-2.187, 2.99-2.138c 0.252,0.010, 0.503,0.048, 0.743,0.125 c 0.772,0.228, 1.408,0.742, 1.791,1.45c 0.085,0.153, 0.148,0.313, 0.202,0.471c 0.566-0.507, 1.315-0.797, 2.12-0.766 c 0.252,0.010, 0.503,0.049, 0.744,0.125c 0.771,0.228, 1.407,0.742, 1.791,1.45c 0.020,0.037, 0.035,0.076, 0.054,0.113 c 0.579-0.758, 1.505-1.22, 2.506-1.184c 0.252,0.010, 0.503,0.048, 0.744,0.124c 0.771,0.229, 1.407,0.742, 1.79,1.45 c 0.278,0.516, 0.398,1.090, 0.355,1.661c 0.451-0.236, 0.966-0.357, 1.502-0.336c 0.252,0.010, 0.502,0.048, 0.743,0.124 c 0.771,0.228, 1.407,0.742, 1.791,1.45c 0.048,0.086, 0.086,0.171, 0.125,0.259c 0.071,0.010, 0.144,0.029, 0.209,0.069l 2.748,1.685 c 0.003,0.002, 0.005,0.004, 0.007,0.006l 4.808,2.948c 0.941,0.579, 2.175,0.282, 2.753-0.66c 0.579-0.941, 0.282-2.175-0.659-2.754 l-5.385-3.305l 0.001-0.001l-1.826-1.123c-0.24-0.144-0.315-0.458-0.165-0.699c 0.144-0.24, 0.458-0.314, 0.699-0.165l 2.755,1.691 c 0.009,0.005, 0.010,0.010, 0.016,0.012l 6.163,3.784c 0.942,0.579, 2.175,0.281, 2.753-0.66c 0.579-0.942, 0.282-2.175-0.66-2.753 l-6.653-4.082c-0.001,0-0.002,0-0.003-0.001l-2.918-1.794c-0.254-0.155-0.334-0.487-0.177-0.739c 0.155-0.254, 0.488-0.334, 0.739-0.178 l 2.664,1.637l0-0.001 l 8.455,5.192c 0.941,0.579, 2.175,0.283, 2.753-0.66C 70.575,28.647, 70.278,27.414, 69.337,26.838z" ></path></svg>