<?xml version="1.0" encoding="utf-8"?>
<!-- Generator: Adobe Illustrator 17.1.0, SVG Export Plug-In . SVG Version: 6.00 Build 0)  -->
<!DOCTYPE svg PUBLIC "-//W3C//DTD SVG 1.1//EN" "http://www.w3.org/Graphics/SVG/1.1/DTD/svg11.dtd">
<svg version="1.1" id="Layer_1" xmlns="http://www.w3.org/2000/svg" xmlns:xlink="http://www.w3.org/1999/xlink" x="0px" y="0px"
	 viewBox="0 0 612 792" enable-background="new 0 0 612 792" xml:space="preserve">
<path d="M290.6,160.8c-88,0-159.3,71.3-159.3,159.3c0,88,71.3,159.3,159.3,159.3c88,0,159.3-71.3,159.3-159.3
	C449.9,232.1,378.6,160.8,290.6,160.8z M302,421.5c-4.3,4.1-10.1,6.1-17.5,6.1c-7,0-12.6-2-16.9-6.1c-4.3-4.1-6.4-9.5-6.4-16.3
	c0-6.8,2.1-12.2,6.4-16.2c4.3-4,9.9-6,16.9-6c7.4,0,13.2,2,17.5,6c4.3,4,6.4,9.4,6.4,16.2C308.4,412,306.2,417.4,302,421.5z
	 M348.7,290c-2.6,6.5-5.9,12-9.8,16.6c-3.9,4.6-8.2,8.6-12.8,12.1c-4.7,3.5-8.9,7.2-12.8,11.2c-3.9,4-7.2,8.6-9.9,13.8
	c-2.7,5.2-4.1,11.9-4.1,20.1H267c-1-10.1-0.5-18.7,1.5-25.8c1.9-7.1,4.6-13.2,8-18.3c3.4-5.1,7.3-9.6,11.6-13.4s8.4-7.4,12.2-10.9
	c3.8-3.5,6.9-7.1,9.5-10.9c2.5-3.8,3.8-8.3,3.8-13.5c0-6.8-1.9-12.2-5.7-16.3c-3.8-4.1-10.5-6.1-20.2-6.1c-3.1,0-6.4,0.3-9.9,1
	c-3.5,0.7-7,1.7-10.5,2.9c-3.5,1.3-6.8,2.7-10,4.4c-3.2,1.7-6.1,3.4-8.6,5.1l-14.6-28c7.4-5,15.9-9.2,25.5-12.5
	c9.6-3.3,21.2-5,34.8-5c18.2,0,32.5,4.4,42.8,13.3c10.3,8.8,15.4,20.7,15.4,35.7C352.6,275.3,351.3,283.5,348.7,290z"/>
</svg>
