<svg xmlns="http://www.w3.org/2000/svg" xmlns:xlink="http://www.w3.org/1999/xlink" version="1.1" id="Your_Icon" x="0px" y="0px" width="100px" height="100px" viewBox="0 0 100 100" enable-background="new 0 0 100 100" xml:space="preserve">
<path fill="#000000" d="M63.688,73.32c-6.678,0-8.365-4.016-8.553-7.129c3.355-3.041,6.5-8.126,8.092-13.882  c0.199-0.007,0.41-0.175,0.64-0.292c2.256-1.153,3.28-9.224,2.029-11.295c-0.497-0.822-1.031-0.888-1.496-0.636  c0.172-5.093,0.429-9.331-1.142-12.78c-1.912-4.197-10.715-7.299-15.25-7.299c-4.971,0-12.143,3.035-14.185,7.225  c-1.679,3.441-1.684,7.659-1.633,12.87c-0.482-0.299-1.048-0.311-1.573,0.558c-1.251,2.071-0.227,10.079,2.029,11.232  c0.287,0.146,0.548,0.195,0.788,0.175c1.59,5.534,4.54,10.27,7.664,13.34c0.04,3.228-1.458,8.046-8.785,8.046  C23.895,73.453,16.583,78,16.382,84h0.005c0.054,1,0.32,1,1.15,1H78.37c1.178,0,1.248,0,1.247-1h0.011  C79.628,77,72.224,73.32,63.688,73.32z"/>
</svg>