<?xml version="1.0" encoding="utf-8"?>
<!-- Generator: Adobe Illustrator 17.0.0, SVG Export Plug-In . SVG Version: 6.00 Build 0)  -->
<!DOCTYPE svg PUBLIC "-//W3C//DTD SVG 1.1//EN" "http://www.w3.org/Graphics/SVG/1.1/DTD/svg11.dtd">
<svg version="1.1" id="Layer_1" xmlns="http://www.w3.org/2000/svg" xmlns:xlink="http://www.w3.org/1999/xlink" x="0px" y="0px"
	 width="100px" height="110px" viewBox="0 -5 100 110" enable-background="new 0 -5 100 110" xml:space="preserve">
<g>
	<rect x="10" y="98.813" width="33.24" height="3.187"/>
	<rect x="56.759" y="98.813" width="33.241" height="3.187"/>
	<path d="M10,0.959V97.71h80V0.959H10z M35.575,81.907H22.054V70.958h13.521V81.907z M35.575,62.99H22.054V52.038h13.521V62.99z
		 M35.575,43.758H22.054V32.806h13.521V43.758z M35.575,24.526H22.054V13.574h13.521V24.526z M56.759,96.334H43.24V70.958h13.519
		V96.334z M56.759,62.99H43.24V52.038h13.519V62.99z M56.759,43.758H43.24V32.806h13.519V43.758z M56.759,24.526H43.24V13.574
		h13.519V24.526z M78.333,81.907H64.814V70.958h13.519V81.907z M78.333,62.99H64.814V52.038h13.519V62.99z M78.333,43.758H64.814
		V32.806h13.519V43.758z M78.333,24.526H64.814V13.574h13.519V24.526z"/>
</g>
</svg>
