<?xml version="1.0" encoding="utf-8"?>
<!-- Generator: Adobe Illustrator 17.1.0, SVG Export Plug-In . SVG Version: 6.00 Build 0)  -->
<!DOCTYPE svg PUBLIC "-//W3C//DTD SVG 1.1//EN" "http://www.w3.org/Graphics/SVG/1.1/DTD/svg11.dtd">
<svg version="1.1" xmlns="http://www.w3.org/2000/svg" xmlns:xlink="http://www.w3.org/1999/xlink" x="0px" y="0px"
	 viewBox="-2.5 7.5 125 85" enable-background="new -2.5 7.5 125 85" xml:space="preserve">
<g id="Your_Icon">
	<path d="M48.6,72.4c-6.2,0-7.8-3.7-8-6.6c3.1-2.8,6-7.6,7.5-12.9c0.2,0,0.4-0.2,0.6-0.3c2.1-1.1,3.1-8.6,1.9-10.5
		c-0.5-0.8-1-0.8-1.4-0.6c0.2-4.7,0.4-8.7-1.1-11.9c-1.8-3.9-10-6.8-14.2-6.8c-4.6,0-11.3,2.8-13.2,6.7c-1.6,3.2-1.6,7.1-1.5,12
		c-0.4-0.3-1-0.3-1.5,0.5c-1.2,1.9-0.2,9.4,1.9,10.4c0.3,0.1,0.5,0.2,0.7,0.2c1.5,5.1,4.2,9.6,7.1,12.4c0,3-1.4,7.5-8.2,7.5
		c-7.8,0-14.6,4.2-14.8,9.8h0c0.1,0.9,0.3,0.9,1.1,0.9h56.6c1.1,0,1.2,0,1.2-0.9h0C63.4,75.8,56.5,72.4,48.6,72.4z"/>
</g>
<g id="Layer_2">
	<path d="M98.7,75.4c-7.2,0-9.2-3.9-9.6-7.3c2.7,0.9,5,0.9,5,0.9c0.6-0.2,1.2-0.2,1.9-0.3c0.2,0-1.1-4.4-1.6-6.4
		c0.1-0.1,0.2-0.2,0.3-0.3c1,1.8,2.9,6.5,3.3,6.5c3.6,0.2,7.5,1.3,7.5,1.3c-6.4-8.2-3-19.1-3-19.1s6-10.5-1.6-26.2
		c-6.6-13.7-17.8-11.7-20.5-10.9c-2.7-0.7-13.9-2.8-20.5,10.9c-7.6,15.7-1.6,26.2-1.6,26.2s3.4,10.9-3,19.1c0,0,3.2-1.1,6.9-1.3
		c0.5,0,3.3-7.2,3.8-7.2c0.2,0-2,7.3-1.8,7.3c0.7,0.1,1.9,0,2.5,0.2c0,0,3.3-0.1,6.5-1.6c0,3.6-1.8,8.3-9.9,8.3
		c-9.5,0-17.7,4.4-18,11.4h0c0,1,0.4,1,1.3,1h68.5c1.3,0,1.4-1,1.4-1h0C116.6,80,108.3,75.4,98.7,75.4z"/>
</g>
</svg>
